Coordinates
version=1
nRows=12
nColumns=24
inDegrees=yes

Units are S.I. units (second, meters, Newtons, ...)
Angles are in degrees.

endheader
time	pelvis_tilt	pelvis_list	pelvis_rotation	pelvis_tx	pelvis_ty	pelvis_tz	hip_flexion_r	hip_adduction_r	hip_rotation_r	knee_angle_r	ankle_angle_r	subtalar_angle_r	mtp_angle_r	hip_flexion_l	hip_adduction_l	hip_rotation_l	knee_angle_l	ankle_angle_l	subtalar_angle_l	mtp_angle_l	lumbar_extension	lumbar_bending	lumbar_rotation
      0.70700000	     -2.23909026	      7.41976702	      5.06066196	      0.03871513	      0.96043586	      0.30729031	     30.78579516	     -9.10821603	      1.46217044	     -1.38532008	      2.56117323	     -7.92245158	      2.83470148	    -26.42962280	      9.47866951	     10.20646852	      4.15611582	      5.78971486	     -5.03609074	      8.42314267	     -9.27618899	      0.23747266	    -12.83611023
      0.71116667	     -2.31363151	      7.25705916	      5.11387054	      0.04480600	      0.95984499	      0.30764289	     30.85281626	     -8.89749131	      1.69116260	     -2.02706967	      2.39496234	     -8.03231811	      2.84235399	    -26.55079522	      9.26372945	     10.05008510	      3.90361116	      5.55198346	     -5.01460263	      8.43236961	     -9.12760097	      0.45774343	    -12.82124356
      0.71533333	     -2.40808327	      7.08544093	      5.16637443	      0.05095820	      0.95926095	      0.30802217	     30.92832513	     -8.67453403	      1.92352882	     -2.65212025	      2.17236760	     -8.12980468	      2.85905661	    -26.63721953	      9.04172423	      9.87478627	      3.62615905	      5.29869016	     -4.95184758	      8.46450030	     -8.95482557	      0.69563650	    -12.81025992
      0.71950000	     -2.50907239	      6.90041926	      5.21782636	      0.05717032	      0.95869436	      0.30843154	     31.00698724	     -8.43390425	      2.12191274	     -3.27414785	      1.89509207	     -8.21921701	      2.88707995	    -26.70431015	      8.80701544	      9.67525094	      3.32749921	      5.03727305	     -4.86759958	      8.52553223	     -8.77119339	      0.93507984	    -12.80648009
      0.72366667	     -2.60846600	      6.70706013	      5.26682491	      0.06344246	      0.95816094	      0.30884747	     31.08186761	     -8.18322620	      2.28792816	     -3.89420599	      1.56770238	     -8.28798445	      2.92699077	    -26.76252786	      8.56559864	      9.45788950	      3.01041487	      4.75663723	     -4.77215918	      8.61538184	     -8.58131317	      1.18984948	    -12.80471138
      0.72783333	     -2.70322752	      6.50768526	      5.31446758	      0.06976402	      0.95766208	      0.30927009	     31.15337418	     -7.92533930	      2.41615548	     -4.51698032	      1.20059718	     -8.33670295	      2.97092058	    -26.81440942	      8.31856049	      9.23499526	      2.67570841	      4.45221848	     -4.69210952	      8.71688745	     -8.38752007	      1.44958353	    -12.80116382
      0.73200000	     -2.82775586	      6.29339791	      5.36078509	      0.07614200	      0.95716407	      0.30977073	     31.23481499	     -7.64215594	      2.59746868	     -5.08840682	      0.67482032	     -8.63307696	      3.22885017	    -26.78771280	      8.05944578	      8.88359336	      2.24787623	      4.26205116	     -4.36426907	      9.31265292	     -8.14827090	      1.71256182	    -12.84769619
      0.73616667	     -2.90487632	      6.07138302	      5.38497302	      0.08257482	      0.95673169	      0.31023071	     31.30303481	     -7.35226233	      2.64171179	     -5.72622657	      0.20753394	     -8.60124095	      5.39170790	    -26.84749446	      7.79459524	      8.63966114	      1.91900942	      3.75105227	     -4.39736254	     14.17028342	     -7.98963321	      1.99237515	    -12.78981230
      0.74033333	     -2.99222248	      5.85489625	      5.40978406	      0.08904878	      0.95632597	      0.31070277	     31.39055039	     -7.06660684	      2.67117963	     -6.38694108	     -0.22576673	     -8.57564665	      5.39904685	    -26.87367507	      7.53858684	      8.41219353	      1.53295083	      3.32167136	     -4.39406287	     14.18235427	     -7.79263302	      2.28234954	    -12.77953751
      0.74450000	     -3.09933854	      5.62752543	      5.42315151	      0.09557411	      0.95592072	      0.31121296	     31.50206258	     -6.76369403	      2.70466826	     -7.04478331	     -0.72031979	     -8.59270349	      5.41647379	    -26.86345425	      7.27733373	      8.16930847	      1.12285027	      2.87678098	     -4.36417679	     14.22371640	     -7.57085305	      2.57935255	    -12.77050992
      0.74866667	     -3.23029274	      5.39083421	      5.43514533	      0.10212861	      0.95552604	      0.31178388	     31.62813126	     -6.44280207	      2.78811879	     -7.67412604	     -1.33230852	     -8.85339716	      5.53056635	    -26.78625670	      7.00847864	      7.86291677	      0.63463803	      2.50061701	     -4.21840233	     14.50830994	     -7.32003853	      2.87196251	    -12.80409665
      0.75283333	     -3.30173843	      5.16562168	      5.41839880	      0.10872837	      0.95521575	      0.31232069	     31.73406874	     -6.13159484	      2.76328270	     -8.39024520	     -1.81385943	     -8.80448677	      5.56379770	    -26.78750396	      6.75851010	      7.60518392	      0.18497606	      1.96428860	     -4.21439304	     14.59354138	     -7.13415185	      3.17554932	    -12.76727397
